<svg width="213" height="26" viewBox="0 0 213 26" fill="none" xmlns="http://www.w3.org/2000/svg">
<path d="M205.131 9.75175C205.131 8.77044 205.31 8.08163 205.669 7.68533C206.037 7.28903 206.655 7.09088 207.523 7.09088H209.249L209.448 7.28903V20.9189C209.448 21.3435 209.542 21.6738 209.731 21.9097C209.929 22.1361 210.254 22.2493 210.707 22.2493H212.292C212.528 22.9381 212.646 23.6364 212.646 24.3441C212.646 24.5045 212.637 24.6743 212.618 24.8536C212.609 25.0329 212.58 25.1933 212.533 25.3348C212.014 25.4009 211.415 25.4622 210.736 25.5188C210.056 25.5849 209.433 25.6179 208.867 25.6179C207.584 25.6179 206.64 25.3018 206.037 24.6696C205.433 24.028 205.131 23.0325 205.131 21.6832V9.75175ZM212.802 11.3228C212.934 11.8229 213 12.3371 213 12.8655C213 13.4411 212.934 13.9742 212.802 14.4649L207.523 14.38L202.909 14.4649C202.786 13.9648 202.725 13.4317 202.725 12.8655C202.725 12.356 202.786 11.8418 202.909 11.3228L207.65 11.3936L212.802 11.3228Z" fill="#324137"/>
<path d="M192.489 19.8432V16.8002H197.825V16.4746C197.825 16.0406 197.763 15.6443 197.641 15.2857C197.518 14.9178 197.32 14.6252 197.046 14.4082C196.782 14.1818 196.424 14.0685 195.971 14.0685C195.282 14.0685 194.796 14.3516 194.513 14.9178C194.239 15.4839 194.102 16.3567 194.102 17.5362V18.8666C194.102 19.5082 194.159 20.1074 194.272 20.6641C194.385 21.2208 194.626 21.669 194.994 22.0087C195.362 22.3484 195.924 22.5182 196.678 22.5182C197.32 22.5182 197.947 22.438 198.561 22.2776C199.184 22.1078 199.778 21.9049 200.344 21.669C200.674 21.9898 200.939 22.3956 201.137 22.8862C201.335 23.3769 201.467 23.8439 201.533 24.2874C200.816 24.8064 199.957 25.2027 198.957 25.4763C197.966 25.7594 196.966 25.9009 195.957 25.9009C194.711 25.9009 193.683 25.698 192.871 25.2923C192.06 24.8771 191.418 24.3204 190.946 23.6222C190.474 22.9145 190.139 22.1219 189.941 21.2444C189.753 20.3574 189.658 19.4469 189.658 18.5128C189.658 17.088 189.871 15.8047 190.295 14.663C190.729 13.5118 191.413 12.6013 192.347 11.9314C193.282 11.2614 194.499 10.9265 195.999 10.9265C197.245 10.9265 198.306 11.1907 199.184 11.7191C200.061 12.2474 200.731 12.9646 201.193 13.8704C201.665 14.7668 201.901 15.7858 201.901 16.9276C201.901 17.5598 201.868 18.0882 201.802 18.5128C201.745 18.9279 201.651 19.3714 201.519 19.8432H192.489Z" fill="#324137"/>
<path d="M180.694 9.75175C180.694 8.77044 180.873 8.08163 181.232 7.68533C181.6 7.28903 182.218 7.09088 183.086 7.09088H184.812L185.011 7.28903V20.9189C185.011 21.3435 185.105 21.6738 185.294 21.9097C185.492 22.1361 185.817 22.2493 186.27 22.2493H187.855C188.091 22.9381 188.209 23.6364 188.209 24.3441C188.209 24.5045 188.2 24.6743 188.181 24.8536C188.171 25.0329 188.143 25.1933 188.096 25.3348C187.577 25.4009 186.978 25.4622 186.299 25.5188C185.619 25.5849 184.996 25.6179 184.43 25.6179C183.147 25.6179 182.203 25.3018 181.6 24.6696C180.996 24.028 180.694 23.0325 180.694 21.6832V9.75175ZM188.365 11.3228C188.497 11.8229 188.563 12.3371 188.563 12.8655C188.563 13.4411 188.497 13.9742 188.365 14.4649L183.086 14.38L178.472 14.4649C178.349 13.9648 178.288 13.4317 178.288 12.8655C178.288 12.356 178.349 11.8418 178.472 11.3228L183.213 11.3936L188.365 11.3228Z" fill="#324137"/>
<path d="M169.613 25.4764C169.302 25.533 168.953 25.5754 168.566 25.6037C168.188 25.6321 167.806 25.6462 167.419 25.6462C166.646 25.6462 165.933 25.5896 165.282 25.4764V4.84048L165.48 4.64233H167.207C168.075 4.64233 168.693 4.84048 169.061 5.23678C169.429 5.63308 169.613 6.32189 169.613 7.3032V25.4764ZM176.832 21.9097C177.067 22.6362 177.28 23.1693 177.468 23.509C177.657 23.8393 177.898 24.1082 178.19 24.3158C177.841 24.7121 177.402 25.0423 176.874 25.3065C176.346 25.5707 175.794 25.7028 175.218 25.7028C174.586 25.7028 174.109 25.5566 173.789 25.2641C173.477 24.9621 173.204 24.4526 172.968 23.7355L172.133 21.2869C171.925 20.683 171.694 20.2867 171.439 20.098C171.194 19.9093 170.878 19.8149 170.491 19.8149C170.085 19.8149 169.731 19.8291 169.429 19.8574C169.127 19.8857 168.821 19.9235 168.509 19.9706L167.363 20.1122V17.0692H171.807C172.845 17.0692 173.741 17.2862 174.496 17.7202C175.26 18.1543 175.808 18.8619 176.138 19.8433L176.832 21.9097ZM175.26 15.7387C174.826 16.5691 174.204 17.1965 173.392 17.6211C172.59 18.0363 171.576 18.2439 170.349 18.2439H167.901V16.2199L170.052 16.1916C170.26 16.1916 170.415 16.1633 170.519 16.1067C170.632 16.0407 170.746 15.9038 170.859 15.6963L172.331 12.8514C172.595 12.323 172.92 11.922 173.307 11.6483C173.704 11.3747 174.199 11.2379 174.793 11.2379C175.265 11.2379 175.695 11.2426 176.081 11.252C176.468 11.2615 176.865 11.2756 177.27 11.2945L177.44 11.521L175.26 15.7387Z" fill="#324137"/>
<path d="M163.571 11.3936C163.571 11.9125 163.476 12.5777 163.288 13.3892C163.099 14.1912 162.825 14.9036 162.467 15.5264C162.222 15.432 161.976 15.366 161.731 15.3282C161.495 15.2905 161.254 15.2575 161.009 15.2292C160.632 15.2292 160.292 15.2999 159.99 15.4415C159.688 15.5736 159.414 15.7717 159.169 16.0359C158.924 16.3001 158.693 16.6256 158.476 17.0125C158.259 17.3994 158.051 17.8429 157.853 18.3429L157.357 17.6777C157.405 16.8946 157.504 16.1208 157.655 15.3565C157.806 14.5828 158.037 13.8799 158.348 13.2477C158.66 12.6155 159.084 12.1107 159.622 11.7332C160.169 11.3464 160.858 11.1529 161.688 11.1529C162.122 11.1529 162.472 11.1765 162.736 11.2237C163.009 11.2615 163.288 11.3181 163.571 11.3936ZM153.196 13.4034C153.272 13.0071 153.446 12.5825 153.72 12.1295C153.994 11.6672 154.267 11.3322 154.541 11.1246C155.852 11.219 156.838 11.7049 157.499 12.5824C158.169 13.4505 158.565 14.5923 158.688 16.0076V25.4763C158.376 25.533 158.027 25.5754 157.641 25.6037C157.254 25.632 156.867 25.6462 156.48 25.6462C156.112 25.6462 155.73 25.632 155.333 25.6037C154.947 25.5754 154.588 25.533 154.258 25.4763V16.3331C154.258 15.4934 154.135 14.8376 153.89 14.3658C153.654 13.8846 153.423 13.5638 153.196 13.4034Z" fill="#324137"/>
<path d="M138.683 21.6124C138.683 20.4707 138.948 19.5413 139.476 18.8242C140.004 18.0976 140.693 17.5598 141.542 17.2107C142.401 16.8615 143.316 16.687 144.288 16.687C144.713 16.687 145.246 16.6964 145.888 16.7153C146.539 16.7342 147.124 16.7955 147.643 16.8993V19.7017C147.237 19.6073 146.746 19.5554 146.171 19.546C145.604 19.5271 145.133 19.5177 144.755 19.5177C144.123 19.5177 143.67 19.6875 143.396 20.0272C143.123 20.3575 142.986 20.7868 142.986 21.3152C142.986 21.6926 143.104 22.0087 143.34 22.2635C143.576 22.5088 143.892 22.6315 144.288 22.6315C144.854 22.6315 145.43 22.4286 146.015 22.0229C146.6 21.6171 147.095 21.0604 147.501 20.3528L148.124 23.1552C147.756 23.5892 147.336 24.0185 146.864 24.4431C146.392 24.8677 145.84 25.2169 145.208 25.4905C144.576 25.7641 143.835 25.901 142.986 25.901C142.014 25.901 141.207 25.6839 140.566 25.2499C139.934 24.8158 139.462 24.2686 139.15 23.6081C138.839 22.9476 138.683 22.2824 138.683 21.6124ZM151.521 23.4382C151.445 23.8251 151.271 24.245 150.997 24.6979C150.723 25.1508 150.45 25.4858 150.176 25.7028C149.346 25.6839 148.657 25.4952 148.11 25.1367C147.572 24.7781 147.157 24.3393 146.864 23.8204C146.581 23.292 146.397 22.7777 146.312 22.2776V16.2199C146.312 15.6255 146.161 15.1773 145.859 14.8753C145.567 14.5734 145.1 14.4224 144.458 14.4224C143.854 14.4224 143.194 14.5215 142.477 14.7196C141.759 14.9084 141.028 15.1112 140.283 15.3282C139.971 14.9697 139.726 14.5073 139.547 13.9412C139.377 13.3656 139.268 12.8042 139.221 12.2569C139.853 11.9927 140.556 11.771 141.33 11.5917C142.104 11.403 142.873 11.2615 143.637 11.1671C144.411 11.0633 145.1 11.0114 145.704 11.0114C146.534 11.0114 147.331 11.1671 148.095 11.4785C148.86 11.7804 149.487 12.2852 149.978 12.9929C150.478 13.6912 150.728 14.6394 150.728 15.8378V21.5983C150.728 22.004 150.789 22.3626 150.912 22.6739C151.044 22.9853 151.247 23.2401 151.521 23.4382Z" fill="#324137"/>
<path d="M118.484 11.153C119.323 11.153 119.96 11.4455 120.394 12.0305C120.838 12.6061 121.059 13.3845 121.059 14.3658V25.4764C120.748 25.533 120.394 25.5755 119.998 25.6038C119.611 25.6321 119.229 25.6462 118.851 25.6462C118.484 25.6462 118.101 25.6321 117.705 25.6038C117.318 25.5755 116.96 25.533 116.629 25.4764V11.3511L116.828 11.153H118.484ZM124.202 16.9559C124.202 16.2011 124.065 15.6963 123.791 15.4415C123.517 15.1867 123.23 15.0594 122.928 15.0594C122.522 15.0688 122.093 15.2292 121.64 15.5406C121.196 15.852 120.791 16.2341 120.423 16.687C120.055 17.1305 119.79 17.574 119.63 18.0175V14.196C120.073 13.6959 120.559 13.21 121.088 12.7382C121.626 12.257 122.201 11.8654 122.814 11.5634C123.428 11.2521 124.074 11.0964 124.754 11.0964C125.574 11.0964 126.273 11.2898 126.848 11.6767C127.433 12.0541 127.877 12.5778 128.179 13.2477C128.481 13.9176 128.632 14.6867 128.632 15.5547V25.4764C128.32 25.533 127.966 25.5755 127.57 25.6038C127.183 25.6321 126.801 25.6462 126.424 25.6462C126.056 25.6462 125.674 25.6321 125.277 25.6038C124.89 25.5755 124.532 25.533 124.202 25.4764V16.9559ZM131.774 16.9276C131.774 16.1728 131.627 15.6727 131.335 15.4274C131.052 15.182 130.759 15.0594 130.457 15.0594C130.089 15.0594 129.684 15.2198 129.24 15.5406C128.806 15.852 128.396 16.2483 128.009 16.7295C127.622 17.2013 127.315 17.6825 127.089 18.1731V14.0828C127.513 13.5732 128.014 13.092 128.589 12.6391C129.165 12.1768 129.783 11.8041 130.443 11.521C131.113 11.2379 131.778 11.0964 132.439 11.0964C133.269 11.0964 133.963 11.2945 134.519 11.6908C135.076 12.0777 135.496 12.6108 135.779 13.2902C136.062 13.9695 136.204 14.7433 136.204 15.6114V21.938C136.204 22.4853 136.256 23.0042 136.359 23.4949C136.463 23.9761 136.647 24.396 136.911 24.7546C136.591 25.0188 136.19 25.2452 135.708 25.4339C135.227 25.6132 134.708 25.7028 134.151 25.7028C133.265 25.7028 132.646 25.467 132.297 24.9952C131.948 24.5234 131.774 23.844 131.774 22.9571V16.9276Z" fill="#324137"/>
<path d="M114.918 11.3936C114.918 11.9125 114.824 12.5777 114.635 13.3892C114.446 14.1912 114.173 14.9036 113.814 15.5264C113.569 15.432 113.323 15.366 113.078 15.3282C112.842 15.2905 112.602 15.2575 112.356 15.2292C111.979 15.2292 111.639 15.2999 111.337 15.4415C111.035 15.5736 110.762 15.7717 110.516 16.0359C110.271 16.3001 110.04 16.6256 109.823 17.0125C109.606 17.3994 109.398 17.8429 109.2 18.3429L108.705 17.6777C108.752 16.8946 108.851 16.1208 109.002 15.3565C109.153 14.5828 109.384 13.8799 109.695 13.2477C110.007 12.6155 110.431 12.1107 110.969 11.7332C111.516 11.3464 112.205 11.1529 113.036 11.1529C113.47 11.1529 113.819 11.1765 114.083 11.2237C114.357 11.2615 114.635 11.3181 114.918 11.3936ZM104.543 13.4034C104.619 13.0071 104.794 12.5825 105.067 12.1295C105.341 11.6672 105.614 11.3322 105.888 11.1246C107.2 11.219 108.186 11.7049 108.846 12.5824C109.516 13.4505 109.912 14.5923 110.035 16.0076V25.4763C109.724 25.533 109.375 25.5754 108.988 25.6037C108.601 25.632 108.214 25.6462 107.827 25.6462C107.459 25.6462 107.077 25.632 106.681 25.6037C106.294 25.5754 105.935 25.533 105.605 25.4763V16.3331C105.605 15.4934 105.482 14.8376 105.237 14.3658C105.001 13.8846 104.77 13.5638 104.543 13.4034Z" fill="#324137"/>
<path d="M93.331 19.8432V16.8002H98.6668V16.4746C98.6668 16.0406 98.6055 15.6443 98.4828 15.2857C98.3602 14.9178 98.162 14.6252 97.8884 14.4082C97.6242 14.1818 97.2656 14.0685 96.8127 14.0685C96.1239 14.0685 95.638 14.3516 95.3549 14.9178C95.0813 15.4839 94.9445 16.3567 94.9445 17.5362V18.8666C94.9445 19.5082 95.0011 20.1074 95.1143 20.6641C95.2275 21.2208 95.4681 21.669 95.8361 22.0087C96.2041 22.3484 96.7656 22.5182 97.5204 22.5182C98.162 22.5182 98.7895 22.438 99.4028 22.2776C100.026 22.1078 100.62 21.9049 101.186 21.669C101.516 21.9898 101.781 22.3956 101.979 22.8862C102.177 23.3769 102.309 23.8439 102.375 24.2874C101.658 24.8064 100.799 25.2027 99.7991 25.4763C98.8084 25.7594 97.8082 25.9009 96.7986 25.9009C95.5531 25.9009 94.5246 25.698 93.7131 25.2923C92.9016 24.8771 92.26 24.3204 91.7882 23.6222C91.3164 22.9145 90.9815 22.1219 90.7833 21.2444C90.5946 20.3574 90.5002 19.4469 90.5002 18.5128C90.5002 17.088 90.7125 15.8047 91.1371 14.663C91.5712 13.5118 92.2553 12.6013 93.1894 11.9314C94.1236 11.2614 95.3408 10.9265 96.841 10.9265C98.0866 10.9265 99.1481 11.1907 100.026 11.7191C100.903 12.2474 101.573 12.9646 102.035 13.8704C102.507 14.7668 102.743 15.7858 102.743 16.9276C102.743 17.5598 102.71 18.0882 102.644 18.5128C102.587 18.9279 102.493 19.3714 102.361 19.8432H93.331Z" fill="#324137"/>
<path d="M85.9076 11.3653C86.1718 11.3087 86.436 11.2709 86.7002 11.2521C86.9738 11.2238 87.2428 11.2096 87.507 11.2096C87.8938 11.2096 88.2854 11.2332 88.6817 11.2804C89.0874 11.3275 89.4602 11.4172 89.7998 11.5493L89.9272 11.7474C89.6441 12.7759 89.328 13.9129 88.9789 15.1584C88.6392 16.3945 88.2901 17.6542 87.9316 18.9374C87.573 20.2113 87.2286 21.419 86.8984 22.5608C86.5681 23.693 86.2756 24.6649 86.0208 25.4764C85.5302 25.533 84.9923 25.5755 84.4073 25.6038C83.8318 25.6321 83.2656 25.6462 82.7089 25.6462C81.8691 25.6462 81.2086 25.5094 80.7274 25.2358C80.2556 24.9621 79.8923 24.396 79.6376 23.5373L76.2549 11.6908C76.6417 11.5304 77.0522 11.3936 77.4862 11.2804C77.9297 11.1577 78.3307 11.0964 78.6893 11.0964C79.3875 11.0964 79.9442 11.2521 80.3594 11.5634C80.7746 11.8654 81.0718 12.3985 81.2511 13.1628L82.5249 18.4421C82.6193 18.8006 82.7042 19.1969 82.7797 19.631C82.8552 20.0556 82.9212 20.466 82.9778 20.8623C83.0439 21.2586 83.1005 21.5983 83.1477 21.8814C83.1665 21.9946 83.1948 22.0607 83.2326 22.0795C83.2798 22.0984 83.3458 22.1078 83.4307 22.1078L85.9076 11.3653Z" fill="#324137"/>
<path d="M64.7323 9.75175C64.7323 8.77044 64.9116 8.08163 65.2701 7.68533C65.6381 7.28903 66.2561 7.09088 67.1242 7.09088H68.851L69.0491 7.28903V20.9189C69.0491 21.3435 69.1435 21.6738 69.3322 21.9097C69.5303 22.1361 69.8559 22.2493 70.3088 22.2493H71.894C72.1299 22.9381 72.2478 23.6364 72.2478 24.3441C72.2478 24.5045 72.2384 24.6743 72.2195 24.8536C72.2101 25.0329 72.1818 25.1933 72.1346 25.3348C71.6156 25.4009 71.0165 25.4622 70.3371 25.5188C69.6577 25.5849 69.035 25.6179 68.4688 25.6179C67.1856 25.6179 66.242 25.3018 65.6381 24.6696C65.0342 24.028 64.7323 23.0325 64.7323 21.6832V9.75175ZM72.4035 11.3228C72.5356 11.8229 72.6017 12.3371 72.6017 12.8655C72.6017 13.4411 72.5356 13.9742 72.4035 14.4649L67.1242 14.38L62.5102 14.4649C62.3875 13.9648 62.3262 13.4317 62.3262 12.8655C62.3262 12.356 62.3875 11.8418 62.5102 11.3228L67.2516 11.3936L72.4035 11.3228Z" fill="#60CE86"/>
<path d="M53.6518 25.4764C53.3404 25.533 52.9913 25.5754 52.6044 25.6037C52.227 25.6321 51.8449 25.6462 51.458 25.6462C50.6843 25.6462 49.9719 25.5896 49.3208 25.4764V4.84048L49.5189 4.64233H51.2457C52.1138 4.64233 52.7318 4.84048 53.0998 5.23678C53.4678 5.63308 53.6518 6.32189 53.6518 7.3032V25.4764ZM60.8701 21.9097C61.106 22.6362 61.3183 23.1693 61.507 23.509C61.6957 23.8393 61.9363 24.1082 62.2288 24.3158C61.8797 24.7121 61.441 25.0423 60.9126 25.3065C60.3842 25.5707 59.8322 25.7028 59.2566 25.7028C58.6244 25.7028 58.1479 25.5566 57.8271 25.2641C57.5157 24.9621 57.2421 24.4526 57.0062 23.7355L56.1711 21.2869C55.9635 20.683 55.7324 20.2867 55.4776 20.098C55.2323 19.9093 54.9162 19.8149 54.5293 19.8149C54.1236 19.8149 53.7697 19.8291 53.4678 19.8574C53.1658 19.8857 52.8592 19.9235 52.5478 19.9706L51.4014 20.1122V17.0692H55.8456C56.8835 17.0692 57.7799 17.2862 58.5348 17.7202C59.2991 18.1543 59.8463 18.8619 60.1766 19.8433L60.8701 21.9097ZM59.2991 15.7387C58.865 16.5691 58.2423 17.1965 57.4308 17.6211C56.6288 18.0363 55.6144 18.2439 54.3878 18.2439H51.9392V16.2199L54.0905 16.1916C54.2981 16.1916 54.4538 16.1633 54.5576 16.1067C54.6708 16.0407 54.7841 15.9038 54.8973 15.6963L56.3693 12.8514C56.6335 12.323 56.959 11.922 57.3459 11.6483C57.7422 11.3747 58.2375 11.2379 58.832 11.2379C59.3038 11.2379 59.7331 11.2426 60.12 11.252C60.5068 11.2615 60.9031 11.2756 61.3089 11.2945L61.4787 11.521L59.2991 15.7387Z" fill="#60CE86"/>
<path d="M37.2733 19.8432V16.8002H42.6092V16.4746C42.6092 16.0406 42.5479 15.6443 42.4252 15.2857C42.3026 14.9178 42.1044 14.6252 41.8308 14.4082C41.5666 14.1818 41.208 14.0685 40.7551 14.0685C40.0663 14.0685 39.5804 14.3516 39.2973 14.9178C39.0237 15.4839 38.8868 16.3567 38.8868 17.5362V18.8666C38.8868 19.5082 38.9435 20.1074 39.0567 20.6641C39.1699 21.2208 39.4105 21.669 39.7785 22.0087C40.1465 22.3484 40.7079 22.5182 41.4628 22.5182C42.1044 22.5182 42.7319 22.438 43.3452 22.2776C43.968 22.1078 44.5624 21.9049 45.1286 21.669C45.4588 21.9898 45.723 22.3956 45.9212 22.8862C46.1193 23.3769 46.2514 23.8439 46.3175 24.2874C45.6003 24.8064 44.7417 25.2027 43.7415 25.4763C42.7508 25.7594 41.7506 25.9009 40.741 25.9009C39.4954 25.9009 38.467 25.698 37.6555 25.2923C36.844 24.8771 36.2024 24.3204 35.7306 23.6222C35.2588 22.9145 34.9238 22.1219 34.7257 21.2444C34.537 20.3574 34.4426 19.4469 34.4426 18.5128C34.4426 17.088 34.6549 15.8047 35.0795 14.663C35.5136 13.5118 36.1977 12.6013 37.1318 11.9314C38.0659 11.2614 39.2831 10.9265 40.7834 10.9265C42.0289 10.9265 43.0904 11.1907 43.968 11.7191C44.8455 12.2474 45.5154 12.9646 45.9778 13.8704C46.4496 14.7668 46.6854 15.7858 46.6854 16.9276C46.6854 17.5598 46.6524 18.0882 46.5864 18.5128C46.5298 18.9279 46.4354 19.3714 46.3033 19.8432H37.2733Z" fill="#60CE86"/>
<path d="M33.981 11.3936C33.981 11.9125 33.8866 12.5777 33.6979 13.3892C33.5092 14.1912 33.2356 14.9036 32.877 15.5264C32.6317 15.432 32.3864 15.366 32.141 15.3282C31.9051 15.2905 31.6645 15.2575 31.4192 15.2292C31.0418 15.2292 30.7021 15.2999 30.4002 15.4415C30.0982 15.5736 29.8246 15.7717 29.5792 16.0359C29.3339 16.3001 29.1027 16.6256 28.8857 17.0125C28.6687 17.3994 28.4611 17.8429 28.263 18.3429L27.7676 17.6777C27.8148 16.8946 27.9138 16.1208 28.0648 15.3565C28.2158 14.5828 28.447 13.8799 28.7583 13.2477C29.0697 12.6155 29.4943 12.1107 30.0322 11.7332C30.5794 11.3464 31.2682 11.1529 32.0986 11.1529C32.5326 11.1529 32.8817 11.1765 33.1459 11.2237C33.4196 11.2615 33.6979 11.3181 33.981 11.3936ZM23.6064 13.4034C23.6819 13.0071 23.8565 12.5825 24.1301 12.1295C24.4038 11.6672 24.6774 11.3322 24.951 11.1246C26.2626 11.219 27.2486 11.7049 27.9091 12.5824C28.5791 13.4505 28.9754 14.5923 29.098 16.0076V25.4763C28.7866 25.533 28.4375 25.5754 28.0507 25.6037C27.6638 25.632 27.2769 25.6462 26.8901 25.6462C26.5221 25.6462 26.1399 25.632 25.7436 25.6037C25.3568 25.5754 24.9982 25.533 24.668 25.4763V16.3331C24.668 15.4934 24.5453 14.8376 24.3 14.3658C24.0641 13.8846 23.8329 13.5638 23.6064 13.4034Z" fill="#60CE86"/>
<path d="M21.1055 25.4763C20.7941 25.5329 20.4403 25.5754 20.044 25.6037C19.6571 25.632 19.2749 25.6462 18.8975 25.6462C18.5295 25.6462 18.1474 25.632 17.7511 25.6037C17.3642 25.5754 17.0057 25.5329 16.6754 25.4763V16.1067C16.6754 15.1567 16.5503 13.9176 15.8426 13.4458C15.135 12.974 14.6515 12.4163 14.9204 11.3794C15.3544 11.3322 15.7979 11.2992 16.2508 11.2803C16.7131 11.252 17.1 11.2379 17.4114 11.2379H18.02C18.973 11.2379 19.7231 11.5445 20.2704 12.1578C20.8271 12.7617 21.1055 13.5826 21.1055 14.6206V25.4763Z" fill="#60CE86"/>
<path d="M12.5967 21.386C12.5967 21.8389 12.6674 22.2494 12.809 22.6173C12.9599 22.9853 13.1534 23.259 13.3893 23.4383C13.3043 23.8251 13.1251 24.245 12.8514 24.6979C12.5872 25.1508 12.3183 25.4858 12.0447 25.7028C10.7992 25.684 9.86031 25.2641 9.22812 24.4432C8.59593 23.6222 8.27983 22.6221 8.27983 21.4426V4.84048L8.47798 4.64233H10.2047C11.0728 4.64233 11.6861 4.84048 12.0447 5.23678C12.4127 5.63308 12.5967 6.32189 12.5967 7.3032V21.386ZM0 18.5836C0 16.9606 0.254764 15.5925 0.764292 14.4791C1.28326 13.3562 1.97206 12.507 2.83071 11.9314C3.68936 11.3558 4.63765 11.068 5.67558 11.068C6.65689 11.068 7.52497 11.2709 8.27983 11.6767C9.04412 12.073 9.73765 12.4645 10.3604 12.8514L9.65272 15.9935C9.10545 15.55 8.54875 15.1679 7.9826 14.847C7.41646 14.5168 6.90222 14.3517 6.43987 14.3517C5.98695 14.3517 5.61896 14.5262 5.33589 14.8754C5.06225 15.215 4.85939 15.7057 4.72729 16.3473C4.59519 16.9795 4.52914 17.7344 4.52914 18.6119C4.52914 19.48 4.59991 20.1924 4.74144 20.7491C4.89241 21.2963 5.09528 21.7021 5.35004 21.9663C5.61424 22.221 5.90675 22.3484 6.22756 22.3484C6.52951 22.3484 6.87863 22.2588 7.27493 22.0795C7.68066 21.8908 8.07224 21.5417 8.44967 21.0322C8.83654 20.5132 9.15263 19.7583 9.39796 18.7676L10.3887 21.2728C10.3038 22.0371 10.016 22.773 9.52534 23.4807C9.03469 24.1884 8.40249 24.7687 7.62877 25.2216C6.86447 25.6745 6.01526 25.901 5.08113 25.901C3.93941 25.901 2.99112 25.5896 2.23626 24.9668C1.48141 24.3441 0.919981 23.4807 0.551989 22.3767C0.183996 21.2728 0 20.0084 0 18.5836Z" fill="#60CE86"/>
<path d="M20.6047 12.1122C20.1901 11.2254 19.3969 10.6407 18.5862 10.1664L14.4678 7.78442L14.2467 7.97003C14.2283 8.41342 14.2144 8.8465 14.2052 9.26927C14.196 9.69204 14.1914 10.1612 14.1914 10.6768C14.1914 11.3264 14.325 11.8678 14.5922 12.3009C14.8594 12.7236 15.2509 13.0794 15.7669 13.3681L18.5447 14.9767C18.5447 14.9767 20.7236 16.3972 20.878 16.2683C21.0323 16.1393 21.0323 15.5162 21.0323 15.5162C21.0323 14.1757 21.0101 12.9887 20.6047 12.1122Z" fill="#60CE86"/>
<path d="M19.3441 4.44501C19.8016 3.55393 20.4777 2.87008 21.3723 2.39346L25.9167 -1.33648e-05L26.1607 0.186491C26.181 0.63203 26.1963 1.0672 26.2064 1.49202C26.2166 1.91683 26.2217 2.38828 26.2217 2.90635C26.2217 3.55911 26.0743 4.10309 25.7794 4.53826C25.4846 4.96308 25.0525 5.32055 24.4832 5.61066L21.4181 7.22704C21.4181 7.22704 19.0137 8.65441 18.8434 8.52486C18.6731 8.39531 18.6731 7.78655 18.6731 7.78655C18.6731 6.43958 18.8968 5.32573 19.3441 4.44501Z" fill="#60CE86"/>
</svg>
